<svg xmlns="http://www.w3.org/2000/svg" viewBox="0 0 1024 1024" width="1024" height="1024" role="img" aria-label="App icon">
  <defs>
    
    <clipPath id="squircle">
      <rect x="40" y="40" width="944" height="944" rx="210" ry="210"></rect>
    </clipPath>

    
    <radialGradient id="paper" cx="50%" cy="45%" r="75%">
      <stop offset="0%" stop-color="#F6ECD2"></stop>
      <stop offset="60%" stop-color="#EFE2C2"></stop>
      <stop offset="100%" stop-color="#E5D4A9"></stop>
    </radialGradient>

    
    <radialGradient id="glow" cx="50%" cy="55%" r="40%">
      <stop offset="0%" stop-color="#F4A73A" stop-opacity="0.95"></stop>
      <stop offset="55%" stop-color="#E89326" stop-opacity="0.35"></stop>
      <stop offset="100%" stop-color="#E89326" stop-opacity="0"></stop>
    </radialGradient>

    
    <radialGradient id="vignette" cx="50%" cy="50%" r="70%">
      <stop offset="70%" stop-color="#000" stop-opacity="0"></stop>
      <stop offset="100%" stop-color="#3A2A14" stop-opacity="0.18"></stop>
    </radialGradient>

    
    <filter id="grain" x="0" y="0" width="100%" height="100%">
      <feTurbulence type="fractalNoise" baseFrequency="1.6" numOctaves="2" seed="4" result="n"></feTurbulence>
      <feColorMatrix in="n" type="matrix" values="0 0 0 0 0.25&#xA;                0 0 0 0 0.18&#xA;                0 0 0 0 0.08&#xA;                0 0 0 0.35 0"></feColorMatrix>
      <feComposite in2="SourceGraphic" operator="in"></feComposite>
    </filter>

    
    <filter id="roughen" x="-5%" y="-5%" width="110%" height="110%">
      <feTurbulence type="fractalNoise" baseFrequency="0.9" numOctaves="2" seed="7"></feTurbulence>
      <feDisplacementMap in="SourceGraphic" scale="1.6"></feDisplacementMap>
    </filter>

    
    <filter id="tileShadow" x="-10%" y="-10%" width="120%" height="125%">
      <feGaussianBlur in="SourceAlpha" stdDeviation="14"></feGaussianBlur>
      <feOffset dx="0" dy="10" result="off"></feOffset>
      <feComponentTransfer><feFuncA type="linear" slope="0.22"></feFuncA></feComponentTransfer>
      <feMerge><feMergeNode></feMergeNode><feMergeNode in="SourceGraphic"></feMergeNode></feMerge>
    </filter>
  </defs>

  
  <rect width="1024" height="1024" fill="#F1EDE4"></rect>

  
  <g filter="url(#tileShadow)">
    <rect x="40" y="40" width="944" height="944" rx="210" ry="210" fill="url(#paper)"></rect>
  </g>

  
  <g clip-path="url(#squircle)">
    
    <rect x="40" y="40" width="944" height="944" fill="url(#glow)"></rect>

    
    <rect x="40" y="40" width="944" height="944" fill="url(#vignette)"></rect>

    
    <g filter="url(#roughen)">
      
      <circle cx="512" cy="268" r="44" fill="#2F4A55"></circle>

      
      
      <path d="M 512 338&#xA;               L 706 748&#xA;               L 512 704&#xA;               L 318 748 Z" fill="#2B2F33"></path>
      
      <path d="M 512 400&#xA;               L 488 690&#xA;               L 406 722 Z" fill="#F6ECD2" opacity="0.0"></path>
      
      <path d="M 512 356&#xA;               L 512 700" stroke="#F4A73A" stroke-width="0"></path>
      
      <path d="M 512 372&#xA;               L 512 702&#xA;               L 362 742 Z" fill="none" stroke="none"></path>
      
      <path d="M 512 372&#xA;               L 512 700&#xA;               L 372 735&#xA;               Z" fill="url(#paper)"></path>
      
      <path d="M 512 338&#xA;               L 318 748&#xA;               L 372 735&#xA;               L 512 372 Z" fill="#2B2F33"></path>

      
      <rect x="420" y="792" width="184" height="42" rx="18" fill="#2B2F33"></rect>
    </g>

    
    <rect x="40" y="40" width="944" height="944" fill="#F6ECD2" filter="url(#grain)" opacity="0.55"></rect>
  </g>

  
  <rect x="40.5" y="40.5" width="943" height="943" rx="209.5" ry="209.5" fill="none" stroke="#FFFFFF" stroke-opacity="0.35"></rect>
</svg>